// === Articulação: Floortom1_Center ===

// --- Mic: Floortom_1 ---
<group> seq_position=1 // Round-Robin: A
<region> sample=Floortom1_Center_A_vel01_mic-Floortom_1.wav lovel=0 hivel=13
<region> sample=Floortom1_Center_A_vel02_mic-Floortom_1.wav lovel=14 hivel=27
<region> sample=Floortom1_Center_A_vel03_mic-Floortom_1.wav lovel=28 hivel=41
<region> sample=Floortom1_Center_A_vel04_mic-Floortom_1.wav lovel=42 hivel=55
<region> sample=Floortom1_Center_A_vel05_mic-Floortom_1.wav lovel=56 hivel=69
<region> sample=Floortom1_Center_A_vel06_mic-Floortom_1.wav lovel=70 hivel=83
<region> sample=Floortom1_Center_A_vel07_mic-Floortom_1.wav lovel=84 hivel=97
<region> sample=Floortom1_Center_A_vel08_mic-Floortom_1.wav lovel=98 hivel=111
<region> sample=Floortom1_Center_A_vel09_mic-Floortom_1.wav lovel=112 hivel=127
<group> seq_position=2 // Round-Robin: B
<region> sample=Floortom1_Center_B_vel01_mic-Floortom_1.wav lovel=0 hivel=13
<region> sample=Floortom1_Center_B_vel02_mic-Floortom_1.wav lovel=14 hivel=27
<region> sample=Floortom1_Center_B_vel03_mic-Floortom_1.wav lovel=28 hivel=41
<region> sample=Floortom1_Center_B_vel04_mic-Floortom_1.wav lovel=42 hivel=55
<region> sample=Floortom1_Center_B_vel05_mic-Floortom_1.wav lovel=56 hivel=69
<region> sample=Floortom1_Center_B_vel06_mic-Floortom_1.wav lovel=70 hivel=83
<region> sample=Floortom1_Center_B_vel07_mic-Floortom_1.wav lovel=84 hivel=97
<region> sample=Floortom1_Center_B_vel08_mic-Floortom_1.wav lovel=98 hivel=111
<region> sample=Floortom1_Center_B_vel09_mic-Floortom_1.wav lovel=112 hivel=127

// --- Mic: Overhead_L ---
<group> seq_position=1 output=6 pan=-100 // Round-Robin: A
<region> sample=Floortom1_Center_A_vel01_mic-Overhead_L.wav lovel=0 hivel=13
<region> sample=Floortom1_Center_A_vel02_mic-Overhead_L.wav lovel=14 hivel=27
<region> sample=Floortom1_Center_A_vel03_mic-Overhead_L.wav lovel=28 hivel=41
<region> sample=Floortom1_Center_A_vel04_mic-Overhead_L.wav lovel=42 hivel=55
<region> sample=Floortom1_Center_A_vel05_mic-Overhead_L.wav lovel=56 hivel=69
<region> sample=Floortom1_Center_A_vel06_mic-Overhead_L.wav lovel=70 hivel=83
<region> sample=Floortom1_Center_A_vel07_mic-Overhead_L.wav lovel=84 hivel=97
<region> sample=Floortom1_Center_A_vel08_mic-Overhead_L.wav lovel=98 hivel=111
<region> sample=Floortom1_Center_A_vel09_mic-Overhead_L.wav lovel=112 hivel=127
<group> seq_position=2 output=6 pan=-100 // Round-Robin: B
<region> sample=Floortom1_Center_B_vel01_mic-Overhead_L.wav lovel=0 hivel=13
<region> sample=Floortom1_Center_B_vel02_mic-Overhead_L.wav lovel=14 hivel=27
<region> sample=Floortom1_Center_B_vel03_mic-Overhead_L.wav lovel=28 hivel=41
<region> sample=Floortom1_Center_B_vel04_mic-Overhead_L.wav lovel=42 hivel=55
<region> sample=Floortom1_Center_B_vel05_mic-Overhead_L.wav lovel=56 hivel=69
<region> sample=Floortom1_Center_B_vel06_mic-Overhead_L.wav lovel=70 hivel=83
<region> sample=Floortom1_Center_B_vel07_mic-Overhead_L.wav lovel=84 hivel=97
<region> sample=Floortom1_Center_B_vel08_mic-Overhead_L.wav lovel=98 hivel=111
<region> sample=Floortom1_Center_B_vel09_mic-Overhead_L.wav lovel=112 hivel=127

// --- Mic: Overhead_R ---
<group> seq_position=1 output=6 pan=100 // Round-Robin: A
<region> sample=Floortom1_Center_A_vel01_mic-Overhead_R.wav lovel=0 hivel=13
<region> sample=Floortom1_Center_A_vel02_mic-Overhead_R.wav lovel=14 hivel=27
<region> sample=Floortom1_Center_A_vel03_mic-Overhead_R.wav lovel=28 hivel=41
<region> sample=Floortom1_Center_A_vel04_mic-Overhead_R.wav lovel=42 hivel=55
<region> sample=Floortom1_Center_A_vel05_mic-Overhead_R.wav lovel=56 hivel=69
<region> sample=Floortom1_Center_A_vel06_mic-Overhead_R.wav lovel=70 hivel=83
<region> sample=Floortom1_Center_A_vel07_mic-Overhead_R.wav lovel=84 hivel=97
<region> sample=Floortom1_Center_A_vel08_mic-Overhead_R.wav lovel=98 hivel=111
<region> sample=Floortom1_Center_A_vel09_mic-Overhead_R.wav lovel=112 hivel=127
<group> seq_position=2 output=6 pan=100 // Round-Robin: B
<region> sample=Floortom1_Center_B_vel01_mic-Overhead_R.wav lovel=0 hivel=13
<region> sample=Floortom1_Center_B_vel02_mic-Overhead_R.wav lovel=14 hivel=27
<region> sample=Floortom1_Center_B_vel03_mic-Overhead_R.wav lovel=28 hivel=41
<region> sample=Floortom1_Center_B_vel04_mic-Overhead_R.wav lovel=42 hivel=55
<region> sample=Floortom1_Center_B_vel05_mic-Overhead_R.wav lovel=56 hivel=69
<region> sample=Floortom1_Center_B_vel06_mic-Overhead_R.wav lovel=70 hivel=83
<region> sample=Floortom1_Center_B_vel07_mic-Overhead_R.wav lovel=84 hivel=97
<region> sample=Floortom1_Center_B_vel08_mic-Overhead_R.wav lovel=98 hivel=111
<region> sample=Floortom1_Center_B_vel09_mic-Overhead_R.wav lovel=112 hivel=127

// --- Mic: Snare_Bottom ---
<group> seq_position=1 output=1 // Round-Robin: A
<region> sample=Floortom1_Center_A_vel01_mic-Snare_Bottom.wav lovel=0 hivel=13
<region> sample=Floortom1_Center_A_vel02_mic-Snare_Bottom.wav lovel=14 hivel=27
<region> sample=Floortom1_Center_A_vel03_mic-Snare_Bottom.wav lovel=28 hivel=41
<region> sample=Floortom1_Center_A_vel04_mic-Snare_Bottom.wav lovel=42 hivel=55
<region> sample=Floortom1_Center_A_vel05_mic-Snare_Bottom.wav lovel=56 hivel=69
<region> sample=Floortom1_Center_A_vel06_mic-Snare_Bottom.wav lovel=70 hivel=83
<region> sample=Floortom1_Center_A_vel07_mic-Snare_Bottom.wav lovel=84 hivel=97
<region> sample=Floortom1_Center_A_vel08_mic-Snare_Bottom.wav lovel=98 hivel=111
<region> sample=Floortom1_Center_A_vel09_mic-Snare_Bottom.wav lovel=112 hivel=127
<group> seq_position=2 output=1 // Round-Robin: B
<region> sample=Floortom1_Center_B_vel01_mic-Snare_Bottom.wav lovel=0 hivel=13
<region> sample=Floortom1_Center_B_vel02_mic-Snare_Bottom.wav lovel=14 hivel=27
<region> sample=Floortom1_Center_B_vel03_mic-Snare_Bottom.wav lovel=28 hivel=41
<region> sample=Floortom1_Center_B_vel04_mic-Snare_Bottom.wav lovel=42 hivel=55
<region> sample=Floortom1_Center_B_vel05_mic-Snare_Bottom.wav lovel=56 hivel=69
<region> sample=Floortom1_Center_B_vel06_mic-Snare_Bottom.wav lovel=70 hivel=83
<region> sample=Floortom1_Center_B_vel07_mic-Snare_Bottom.wav lovel=84 hivel=97
<region> sample=Floortom1_Center_B_vel08_mic-Snare_Bottom.wav lovel=98 hivel=111
<region> sample=Floortom1_Center_B_vel09_mic-Snare_Bottom.wav lovel=112 hivel=127
